<?xml version="1.0" encoding="UTF-8"?>
<svg id="Layer_1" data-name="Layer 1" xmlns="http://www.w3.org/2000/svg" viewBox="0 0 2581.36 520.46">
  <defs>
    <style>
      .cls-1 {
        letter-spacing: .04em;
      }

      .cls-2 {
        fill: #2d2e2d;
      }

      .cls-3 {
        letter-spacing: .5em;
      }

      .cls-4 {
        font-family: CascadiaMonoRoman-Bold, 'Cascadia Mono';
        font-size: 60px;
        font-variation-settings: 'wght' 700;
        font-weight: 700;
      }

      .cls-4, .cls-5, .cls-6 {
        fill: #fff;
      }

      .cls-7 {
        fill: #212120;
      }

      .cls-8 {
        letter-spacing: -.01em;
      }

      .cls-9 {
        letter-spacing: .07em;
      }

      .cls-6 {
        font-family: BiondiSansW00-Regular, BiondiSansW00-Regular;
        font-size: 54px;
      }

      .cls-10 {
        letter-spacing: 1em;
      }

      .cls-11 {
        letter-spacing: 0em;
      }

      .cls-12 {
        letter-spacing: .07em;
      }

      .cls-13 {
        letter-spacing: 0em;
      }

      .cls-14 {
        letter-spacing: .04em;
      }

      .cls-15 {
        letter-spacing: .03em;
      }

      .cls-16 {
        fill: #c4ad7f;
      }
    </style>
  </defs>
  <g>
    <polygon class="cls-2" points="605.24 0 52.98 212.04 53.94 299.75 602.35 204.33 605.24 0"/>
    <polygon class="cls-16" points="946.43 127.22 605.24 0 602.35 204.33 771.02 172.52 943.54 212.04 946.43 127.22"/>
    <polygon class="cls-2" points="767.16 202.4 132.01 322.88 130.08 385.52 768.13 349.86 767.16 202.4"/>
    <polygon class="cls-16" points="1151.72 395.16 1153.65 287.22 767.16 202.4 768.13 349.86 1151.72 395.16"/>
    <polygon class="cls-16" points="954.14 426.97 954.14 520.46 513.68 516.6 512.72 397.09 954.14 426.97"/>
    <polygon class="cls-2" points="0 440.46 .96 518.53 513.71 516.6 512.75 397.09 0 440.46"/>
    <polyline class="cls-7" points="767.16 202.4 132.25 322.52 131.44 342.22"/>
    <polygon class="cls-7" points="512.75 397.09 0 440.46 .1 452.58 512.75 397.09"/>
  </g>
  <g>
    <g>
      <path class="cls-5" d="M2412.29,204.55l15.68,15.47c-22.47,23.82-60.35,28.5-88.98,16.14-27.23-11.75-41.96-38.27-38.86-67.77,3.41-32.36,30.05-56.24,62.36-59.44,24.48-2.43,48.61,4.68,65.37,22.17l-15.55,15.8c-14.23-14.16-33.8-18.58-53.09-14.47-16.93,3.6-29.86,15.52-34.39,30.66-5.05,16.88-.39,35.64,13.71,46.38,21.85,16.65,52.77,14.49,73.75-4.95Z"/>
      <path class="cls-5" d="M1467.89,192.39l-13.06-.45-14.11-19.81,45.92-.52c9.17-.1,15.38-9.29,15.19-17.33-.19-8.22-6.91-17.46-16.56-17.5l-70.3-.29-16-21.66h87.69c16.12,0,30.07,11.56,35.07,24.45,8.54,21.98-1.56,47.12-26.79,52.88l37.97,51.05-27.87-.04-37.16-50.78Z"/>
      <polygon class="cls-5" points="2077.44 243.05 2055.47 243.08 2055.42 136.78 2006.55 136.66 2006.58 114.92 2126.43 114.84 2126.42 136.6 2077.46 136.98 2077.44 243.05"/>
      <polygon class="cls-5" points="2546.32 190.2 2481.86 190.35 2481.81 243.33 2460.19 243.2 2460.23 115.05 2481.8 114.91 2481.82 168.07 2546.23 168.1 2546.32 190.2"/>
      <polygon class="cls-5" points="1977.88 243.52 1958.79 242.89 1859.33 137.14 1849.97 136.51 1850 114.86 1871.82 115.01 1972.36 221.89 1977.83 224.25 1977.88 243.52"/>
      <rect class="cls-5" x="2559.35" y="114.88" width="22" height="128.53"/>
      <polygon class="cls-5" points="1872.16 242.98 1849.96 243.35 1850.06 160.34 1872.04 182.24 1872.16 242.98"/>
      <polygon class="cls-5" points="1977.8 195.12 1955.86 173.23 1955.85 115.02 1977.98 114.94 1977.8 195.12"/>
      <path class="cls-5" d="M1354.83,190.41l-56.97-.21-8.72-12.72c-1.66-2.42-2.43-5.44-2.37-9.33l90.06-.08c0,10.3.87,19.63-.54,29.64-3.49,24.72-24.94,43.71-49.97,45.7l-42.6.63c-25.91.38-50.29-14.09-60.47-38.29-9.1-21.63-6.1-46.84,7.9-65.58,11.83-15.82,30.36-25.52,50.14-25.52h76.67s.03,21.99.03,21.99l-77.42.41c-19.35.1-33.91,14.52-38.34,32.42-6.27,25.34,10.53,49.94,37.22,51.99l42.08.28c14.98.1,33.52-13.36,33.28-31.33Z"/>
      <rect class="cls-5" x="1345.97" y="167.86" width="128.38" height="22.32" transform="translate(1588.6729 -1231.2062) rotate(89.9797)"/>
      <rect class="cls-5" x="1436.31" y="171.61" width="54.33" height="20.82" transform="translate(2926.9574 364.0387) rotate(-180)"/>
      <rect class="cls-5" x="1322.77" y="114.66" width="54.33" height="22.03" transform="translate(2699.8757 251.3515) rotate(-180)"/>
      <g>
        <rect class="cls-5" x="1554.6" y="168" width="113.04" height="22.32"/>
        <path class="cls-5" d="M1667.78,136.67l-95.37.39c-8,.03-17.48-1.53-17.59-11.15l-.13-11,113.1-.3v22.05Z"/>
        <path class="cls-5" d="M1554.7,221.15l95.37-.39c8-.03,17.48,1.53,17.59,11.15l.13,11-113.1.3v-22.05Z"/>
      </g>
      <g>
        <rect class="cls-5" x="1702.95" y="168.06" width="113.04" height="22.32"/>
        <path class="cls-5" d="M1816.13,136.72l-95.37.39c-8,.03-17.48-1.53-17.59-11.15l-.13-11,113.1-.3v22.05Z"/>
        <path class="cls-5" d="M1703.04,221.21l95.37-.39c8-.03,17.48,1.53,17.59,11.15l.13,11-113.1.3v-22.05Z"/>
      </g>
      <g>
        <rect class="cls-5" x="2155.32" y="168.06" width="113.04" height="22.32"/>
        <path class="cls-5" d="M2268.5,136.72l-95.37.39c-8,.03-17.48-1.53-17.59-11.15l-.13-11,113.1-.3v22.05Z"/>
        <path class="cls-5" d="M2155.42,221.21l95.37-.39c8-.03,17.48,1.53,17.59,11.15l.13,11-113.1.3v-22.05Z"/>
      </g>
    </g>
    <text class="cls-4" transform="translate(1526.3518 472.1652)"><tspan class="cls-3" x="0" y="0">REA</tspan><tspan class="cls-10" x="195.47" y="0">L</tspan><tspan class="cls-3" x="290.62" y="0">ESTAT</tspan><tspan class="cls-10" x="616.41" y="0">E </tspan></text>
    <text class="cls-6" transform="translate(1277.771 352.0538)"><tspan class="cls-9" x="0" y="0">BUI</tspan><tspan class="cls-8" x="112.43" y="0">L</tspan><tspan class="cls-12" x="148.07" y="0">T </tspan><tspan class="cls-14" x="210.33" y="0">T</tspan><tspan class="cls-9" x="250.56" y="0">O HOL</tspan><tspan class="cls-11" x="467.69" y="0">D</tspan><tspan class="cls-12" x="513.81" y="0">. DESIGNED </tspan><tspan class="cls-1" x="915.89" y="0">T</tspan><tspan class="cls-12" x="956.12" y="0">O G</tspan><tspan class="cls-15" x="1081.45" y="0">R</tspan><tspan class="cls-13" x="1126.59" y="0">O</tspan><tspan class="cls-12" x="1177.3" y="0">W</tspan></text>
  </g>
</svg>