<?xml version="1.0" standalone="no"?>
<!DOCTYPE svg PUBLIC "-//W3C//DTD SVG 20010904//EN"
 "http://www.w3.org/TR/2001/REC-SVG-20010904/DTD/svg10.dtd">
<svg version="1.0" xmlns="http://www.w3.org/2000/svg"
 width="512.000000pt" height="512.000000pt" viewBox="0 0 512.000000 512.000000"
 preserveAspectRatio="xMidYMid meet">

<g transform="translate(0.000000,512.000000) scale(0.100000,-0.100000)"
fill="#000000" stroke="none">
<path d="M2491 5098 c-87 -45 -81 40 -81 -1093 l0 -1000 -58 -25 c-77 -33
-179 -135 -212 -212 l-25 -58 -239 0 -239 0 131 134 c136 138 139 143 134 220
-7 91 -124 156 -205 115 -31 -16 -535 -519 -553 -551 -17 -32 -18 -101 -3
-131 16 -31 519 -535 551 -553 30 -16 85 -18 120 -5 36 14 77 60 88 101 19 72
7 95 -133 237 l-130 133 239 0 239 0 25 -58 c33 -77 135 -179 212 -212 l58
-25 0 -1000 c0 -1133 -6 -1048 81 -1093 77 -41 167 -13 203 62 14 31 16 132
16 1033 l0 998 58 25 c77 33 179 135 212 212 l25 58 239 0 239 0 -130 -132
c-138 -141 -153 -168 -134 -234 14 -49 33 -74 73 -95 44 -23 99 -25 136 -5 32
18 535 522 551 553 15 30 14 99 -3 131 -18 32 -522 535 -553 551 -52 27 -152
-1 -182 -50 -22 -37 -31 -82 -24 -119 5 -27 34 -63 136 -167 l130 -133 -239 0
-239 0 -25 58 c-33 77 -135 179 -212 212 l-58 25 0 998 c0 901 -2 1002 -16
1033 -36 75 -126 103 -203 62z m149 -2390 c82 -42 113 -149 68 -230 -64 -114
-231 -116 -295 -3 -47 82 -15 191 67 233 24 12 60 22 80 22 20 0 56 -10 80
-22z"/>
<path d="M290 4824 c-76 -20 -129 -54 -188 -119 -65 -71 -95 -146 -96 -240 -1
-102 36 -150 122 -162 89 -12 156 42 171 137 10 65 32 87 101 100 65 12 99 34
122 81 38 74 8 166 -65 200 -50 22 -92 23 -167 3z"/>
<path d="M895 4826 c-41 -18 -85 -71 -87 -104 -4 -85 16 -129 72 -161 34 -19
54 -21 191 -21 174 0 206 9 246 69 48 71 20 175 -57 213 -29 15 -62 18 -185
18 -102 -1 -160 -5 -180 -14z"/>
<path d="M1706 4830 c-120 -36 -130 -215 -16 -272 28 -15 61 -18 170 -18 162
0 193 11 228 80 27 54 27 82 2 138 -30 66 -74 82 -230 81 -69 0 -138 -5 -154
-9z"/>
<path d="M3094 4820 c-25 -13 -49 -35 -62 -59 l-22 -39 0 -698 0 -698 38 36
c51 49 109 83 184 109 52 18 79 20 156 16 82 -4 102 -9 170 -42 70 -35 100
-61 341 -299 145 -144 283 -287 307 -319 113 -152 113 -382 0 -534 -73 -98
-563 -574 -625 -607 -174 -93 -377 -69 -523 62 l-48 44 0 -697 0 -697 22 -39
c14 -25 37 -46 64 -59 41 -20 55 -21 880 -18 l839 3 60 24 c83 33 183 133 216
216 l24 60 0 1975 0 1975 -24 60 c-33 83 -133 183 -216 216 l-60 24 -840 3
c-827 2 -841 2 -881 -18z"/>
<path d="M84 4021 c-31 -14 -72 -68 -79 -104 -4 -19 -5 -99 -3 -179 3 -130 5
-150 24 -175 65 -86 183 -86 248 0 19 25 21 44 24 180 4 171 -3 209 -48 252
-25 24 -40 29 -87 32 -32 1 -67 -1 -79 -6z"/>
<path d="M81 3213 c-69 -36 -76 -55 -79 -239 -3 -155 -2 -166 19 -204 24 -42
85 -80 129 -80 44 0 105 38 128 79 20 35 22 53 22 192 0 169 -9 203 -62 242
-38 28 -114 33 -157 10z"/>
<path d="M83 2411 c-71 -33 -83 -70 -83 -253 0 -130 3 -159 19 -188 29 -55 64
-75 131 -75 67 0 102 20 131 75 16 29 19 58 19 188 0 135 -2 158 -21 193 -21
43 -80 79 -129 79 -14 0 -44 -9 -67 -19z"/>
<path d="M84 1611 c-31 -14 -72 -68 -79 -104 -4 -19 -5 -99 -3 -179 3 -130 5
-150 24 -175 65 -86 183 -86 248 0 19 25 21 44 24 180 4 171 -3 209 -48 252
-25 24 -40 29 -87 32 -32 1 -67 -1 -79 -6z"/>
<path d="M81 802 c-59 -29 -76 -63 -75 -145 1 -107 31 -176 113 -258 72 -72
137 -104 235 -115 134 -16 226 102 168 215 -23 47 -57 69 -122 81 -69 13 -91
35 -101 101 -5 30 -17 65 -27 79 -24 33 -79 60 -122 60 -19 0 -50 -8 -69 -18z"/>
<path d="M879 559 c-49 -29 -71 -70 -71 -131 0 -54 17 -86 66 -122 25 -19 44
-21 189 -24 139 -2 167 0 197 15 103 53 108 202 8 263 -29 18 -51 20 -193 20
-144 0 -164 -3 -196 -21z"/>
<path d="M1690 562 c-100 -50 -108 -197 -13 -259 22 -15 53 -19 164 -21 121
-3 142 -1 183 17 38 17 50 29 67 67 36 80 5 170 -67 200 -52 22 -288 19 -334
-4z"/>
</g>
</svg>
