<?xml version="1.0" encoding="UTF-8"?>
<svg id="Layer_1" data-name="Layer 1" xmlns="http://www.w3.org/2000/svg" viewBox="0 0 281.73 37.59">
  <defs>
    <style>
      .cls-1 {
        fill: #fbfaf6;
      }

      .cls-2 {
        fill: #fbfaf6;
      }

      .cls-3 {
        fill: #c4ad7f;
      }
    </style>
  </defs>
  <g>
    <path class="cls-1" d="M257.59,26.95l2.24,2.21c-3.21,3.4-8.62,4.07-12.71,2.31-3.89-1.68-5.99-5.47-5.55-9.68.49-4.62,4.29-8.03,8.91-8.49,3.5-.35,6.94.67,9.34,3.17l-2.22,2.26c-2.03-2.02-4.83-2.65-7.58-2.07-2.42.51-4.26,2.22-4.91,4.38-.72,2.41-.06,5.09,1.96,6.62,3.12,2.38,7.54,2.07,10.53-.71Z"/>
    <path class="cls-1" d="M122.71,25.21l-1.86-.06-2.01-2.83,6.56-.07c1.31-.01,2.2-1.33,2.17-2.48s-.99-2.49-2.37-2.5l-10.04-.04-2.28-3.09h12.52c2.3,0,4.29,1.65,5.01,3.49,1.22,3.14-.22,6.73-3.83,7.55l5.42,7.29h-3.98s-5.31-7.26-5.31-7.26Z"/>
    <polygon class="cls-1" points="209.76 32.44 206.62 32.45 206.62 17.27 199.64 17.25 199.64 14.15 216.76 14.13 216.76 17.24 209.77 17.3 209.76 32.44"/>
    <polygon class="cls-1" points="276.73 24.9 267.52 24.92 267.52 32.48 264.43 32.47 264.43 14.16 267.51 14.14 267.52 21.74 276.72 21.74 276.73 24.9"/>
    <polygon class="cls-1" points="195.54 32.51 192.82 32.42 178.61 17.32 177.28 17.23 177.28 14.14 180.4 14.16 194.76 29.42 195.54 29.76 195.54 32.51"/>
    <rect class="cls-1" x="278.59" y="14.14" width="3.14" height="18.36"/>
    <polygon class="cls-1" points="180.45 32.44 177.27 32.49 177.29 20.63 180.43 23.76 180.45 32.44"/>
    <polygon class="cls-1" points="195.53 25.6 192.4 22.47 192.4 14.16 195.56 14.15 195.53 25.6"/>
    <path class="cls-1" d="M106.56,24.93l-8.14-.03-1.25-1.82c-.24-.35-.35-.78-.34-1.33h12.86c0,1.46.12,2.79-.08,4.22-.5,3.53-3.56,6.24-7.14,6.53l-6.08.09c-3.7.05-7.18-2.01-8.64-5.47-1.3-3.09-.87-6.69,1.13-9.37,1.69-2.26,4.34-3.64,7.16-3.64h10.95s0,3.14,0,3.14l-11.06.06c-2.76.01-4.84,2.07-5.48,4.63-.9,3.62,1.5,7.13,5.32,7.42l6.01.04c2.14.01,4.79-1.91,4.75-4.47Z"/>
    <rect class="cls-1" x="105.29" y="21.71" width="18.34" height="3.19" transform="translate(137.72 -91.17) rotate(89.98)"/>
    <rect class="cls-1" x="118.2" y="22.24" width="7.76" height="2.97" transform="translate(244.15 47.46) rotate(-180)"/>
    <rect class="cls-1" x="101.98" y="14.11" width="7.76" height="3.15" transform="translate(211.72 31.36) rotate(-180)"/>
    <g>
      <rect class="cls-1" x="135.09" y="21.73" width="16.14" height="3.19"/>
      <path class="cls-1" d="M151.26,17.25l-13.62.06c-1.14,0-2.5-.22-2.51-1.59l-.02-1.57,16.15-.04v3.15Z"/>
      <path class="cls-1" d="M135.1,29.32l13.62-.06c1.14,0,2.5.22,2.51,1.59l.02,1.57-16.15.04v-3.15Z"/>
    </g>
    <g>
      <rect class="cls-1" x="156.28" y="21.73" width="16.14" height="3.19"/>
      <path class="cls-1" d="M172.44,17.26l-13.62.06c-1.14,0-2.5-.22-2.51-1.59l-.02-1.57,16.15-.04v3.15Z"/>
      <path class="cls-1" d="M156.29,29.32l13.62-.06c1.14,0,2.5.22,2.51,1.59l.02,1.57-16.15.04v-3.15Z"/>
    </g>
    <g>
      <rect class="cls-1" x="220.89" y="21.73" width="16.14" height="3.19"/>
      <path class="cls-1" d="M237.05,17.26l-13.62.06c-1.14,0-2.5-.22-2.51-1.59l-.02-1.57,16.15-.04v3.15Z"/>
      <path class="cls-1" d="M220.9,29.32l13.62-.06c1.14,0,2.5.22,2.51,1.59l.02,1.57-16.15.04v-3.15Z"/>
    </g>
  </g>
  <g>
    <polygon class="cls-1" points="43.72 0 3.83 15.32 3.9 21.65 43.51 14.76 43.72 0"/>
    <polygon class="cls-3" points="68.36 9.19 43.72 0 43.51 14.76 55.69 12.46 68.15 15.32 68.36 9.19"/>
    <polygon class="cls-1" points="55.41 14.62 9.54 23.32 9.4 27.85 55.48 25.27 55.41 14.62"/>
    <polygon class="cls-3" points="83.19 28.54 83.33 20.75 55.41 14.62 55.48 25.27 83.19 28.54"/>
    <polygon class="cls-3" points="68.92 30.84 68.92 37.59 37.1 37.32 37.03 28.68 68.92 30.84"/>
    <polygon class="cls-1" points="0 31.82 .07 37.45 37.11 37.32 37.04 28.68 0 31.82"/>
    <polyline class="cls-2" points="55.41 14.62 9.55 23.3 9.49 24.72"/>
    <polygon class="cls-2" points="37.04 28.68 0 31.82 0 32.69 37.04 28.68"/>
  </g>
</svg>